<svg width="18" height="16" viewBox="0 0 18 16" fill="none" xmlns="http://www.w3.org/2000/svg">
<path id="Vector" d="M8.19109 14.2866L8.19 14.2856C5.85739 12.2364 3.98281 10.5855 2.68261 9.04443C1.38984 7.51214 0.75 6.1848 0.75 4.79564C0.75 2.53867 2.56873 0.75 4.95 0.75C6.29796 0.75 7.5977 1.36174 8.43861 2.31096L9 2.94466L9.56139 2.31096C10.4023 1.36174 11.702 0.75 13.05 0.75C15.4313 0.75 17.25 2.53867 17.25 4.79564C17.25 6.1848 16.6102 7.51214 15.3174 9.04443C14.0172 10.5855 12.1426 12.2364 9.81 14.2856L9.80891 14.2866L9 15L8.19109 14.2866Z" stroke="#777777" stroke-width="1.5"/>
</svg>
