<svg width="20" height="22" viewBox="0 0 20 22" fill="none" xmlns="http://www.w3.org/2000/svg">
<g id="Frame 3019">
<path id="Vector" d="M16 7.00177C16 5.41047 15.3679 3.88435 14.2426 2.75913C13.1174 1.63391 11.5913 1.00177 10 1.00177C8.4087 1.00177 6.88258 1.63391 5.75736 2.75913C4.63214 3.88435 4 5.41047 4 7.00177C4 14.0018 1 16.0018 1 16.0018H19C19 16.0018 16 14.0018 16 7.00177Z" stroke="#262626" stroke-width="2" stroke-linecap="round" stroke-linejoin="round"/>
<path id="Vector_2" d="M11.7295 20.0018C11.5537 20.3048 11.3014 20.5564 10.9978 20.7313C10.6941 20.9062 10.3499 20.9982 9.99953 20.9982C9.64915 20.9982 9.30492 20.9062 9.0013 20.7313C8.69769 20.5564 8.44534 20.3048 8.26953 20.0018" stroke="#262626" stroke-width="2" stroke-linecap="round" stroke-linejoin="round"/>
</g>
</svg>
