<svg width="34" height="34" viewBox="0 0 34 34" fill="none" xmlns="http://www.w3.org/2000/svg">
<g clip-path="url(#clip0_397_10773)">
<path d="M17.2227 14.9091V19.3627H23.2635C22.9982 20.795 22.2022 22.0078 21.0083 22.8232L24.6512 25.7192C26.7737 23.712 27.9982 20.7637 27.9982 17.2615C27.9982 16.446 27.9268 15.6618 27.7941 14.9092L17.2227 14.9091Z" fill="#4285F4"/>
<path d="M10.933 19.189L10.1114 19.8333L7.20312 22.1542C9.05007 25.9074 12.8355 28.5002 17.2233 28.5002C20.2538 28.5002 22.7946 27.4756 24.6518 25.7193L21.009 22.8233C20.0089 23.5133 18.7334 23.9316 17.2233 23.9316C14.3049 23.9316 11.8254 21.9138 10.9375 19.1956L10.933 19.189Z" fill="#34A853"/>
<path d="M7.204 11.8459C6.43873 13.3932 6 15.1391 6 17C6 18.8609 6.43873 20.6068 7.204 22.1541C7.204 22.1644 10.9388 19.1849 10.9388 19.1849C10.7143 18.4949 10.5816 17.7632 10.5816 16.9999C10.5816 16.2366 10.7143 15.5048 10.9388 14.8148L7.204 11.8459Z" fill="#FBBC05"/>
<path d="M17.2235 10.0791C18.8766 10.0791 20.346 10.6646 21.5194 11.7937L24.7337 8.50051C22.7847 6.63962 20.2542 5.5 17.2235 5.5C12.8358 5.5 9.05007 8.08228 7.20312 11.846L10.9378 14.8151C11.8255 12.0968 14.3051 10.0791 17.2235 10.0791Z" fill="#EA4335"/>
</g>
<defs>
<clipPath id="clip0_397_10773">
<rect width="22" height="23" fill="white" transform="translate(6 5.5)"/>
</clipPath>
</defs>
</svg>
