<svg width="40" height="26" viewBox="0 0 40 26" fill="none" xmlns="http://www.w3.org/2000/svg">
<g id="logo">
<path id="Union" fill-rule="evenodd" clip-rule="evenodd" d="M21.2081 0H15.4001L11.8132 12.2689L8.22636 0H2.36622L0.288424 17.5882H5.42226L6.59485 7.55363L9.07085 17.5882H14.4441L16.9546 7.32694L18.1751 17.5882H23.3095L21.2081 0ZM29.8402 3.51455L31.4701 12.73L30.3643 18.2227C29.9057 18.131 29.4931 17.9909 29.1263 17.8023C28.4306 17.4169 27.8815 16.903 27.4787 16.2607C27.076 15.6183 26.7831 14.8842 26.6 14.0583L24.321 3.51455H29.8402ZM34.8652 24.8774H30.5709L34.8717 3.51455H40L36.2381 22.152L34.8652 24.8774ZM2.28824 19.1176C1.02448 19.1176 0 20.1448 0 21.4118V23.7059C0 24.9729 1.02448 26 2.28824 26H5.33923H16.7804H28.2217V25.2353H15.0749C14.8779 25.0146 14.7229 24.7555 14.6224 24.4706H27.4589V23.7059H14.4922V22.9412H27.4589V22.1765H14.4922V21.4118H27.4589V20.6471H14.6224C14.7229 20.3621 14.8779 20.103 15.0749 19.8824H28.2217V19.1176H16.7804H5.33923H2.28824Z" fill="#262626"/>
</g>
</svg>
