<svg width="34" height="34" viewBox="0 0 34 34" fill="none" xmlns="http://www.w3.org/2000/svg">
<path d="M16.9905 6.60254C10.7681 6.60254 5.75 10.617 5.75 15.4905C5.75 18.6539 7.83752 21.4239 10.9688 23.0056L9.90898 26.9639C9.889 27.0232 9.88593 27.0869 9.90011 27.1479C9.91429 27.2088 9.94516 27.2647 9.98927 27.3091C10.0536 27.3658 10.1364 27.3972 10.2221 27.3974C10.2932 27.3917 10.3607 27.3636 10.4148 27.3171L14.9752 24.2421C15.6484 24.335 16.327 24.3832 17.0066 24.3865C23.2209 24.3865 28.2471 20.3721 28.2471 15.4905C28.2471 10.6089 23.2049 6.60254 16.9905 6.60254Z" fill="#181601"/>
</svg>
