<svg width="87" height="56" viewBox="0 0 87 56" fill="none" xmlns="http://www.w3.org/2000/svg">
<g id="logo">
<path id="Union" fill-rule="evenodd" clip-rule="evenodd" d="M46.1276 0H33.4951L25.6937 26.4253L17.8923 0H5.14652L0.627322 37.8824H11.7934L14.3438 16.2694L19.7291 37.8824H31.416L36.8763 15.7811L39.5308 37.8824H50.6982L46.1276 0ZM64.9024 7.5698L68.4476 27.4185L66.0424 39.249C65.045 39.0515 64.1474 38.7496 63.3496 38.3435C61.8366 37.5133 60.6422 36.4065 59.7662 35.023C58.8903 33.6395 58.2533 32.0583 57.8551 30.2795L52.8981 7.5698H64.9024ZM75.8318 53.582H66.4918L75.846 7.5698H87L78.8179 47.7119L75.8318 53.582ZM4.97693 41.1765C2.22825 41.1765 0 43.3887 0 46.1176V51.0588C0 53.7878 2.22825 56 4.97693 56H11.6128H36.4975H61.3821V54.3529H32.7878C32.3594 53.8777 32.0222 53.3196 31.8037 52.7059H59.7231V51.0588H31.5205V49.4118H59.7231V47.7647H31.5205V46.1176L59.7231 46.1176V44.4706H31.8037C32.0222 43.8569 32.3594 43.2988 32.7878 42.8235H61.3821V41.1765H36.4975H11.6128H4.97693Z" fill="white"/>
</g>
</svg>
