<svg width="376" height="302" viewBox="0 0 376 302" fill="none" xmlns="http://www.w3.org/2000/svg">
<path fill-rule="evenodd" clip-rule="evenodd" d="M84.2146 -31.4679L29.11 -5.34148L48.2363 122.909L-38.9514 26.9281L-94.5502 53.289L-38.0597 223.361L10.6482 200.267L-21.7032 103.294L45.2647 183.854L96.2444 159.684L75.6041 54.6208L131.642 142.9L180.356 119.804L84.2146 -31.4679ZM181.34 -38.1812L236.732 38.6995L250.038 93.8675C245.29 95.0925 240.768 95.6683 236.471 95.5949C228.201 95.2021 220.764 92.9765 214.16 88.9182C207.556 84.8598 201.596 79.4689 196.281 72.7452L128.976 -13.3539L181.34 -38.1812ZM321.573 134.433L280.831 153.75L229.077 -60.8147L277.732 -83.8833L322.791 103.351L321.573 134.433ZM-12.4598 228.341C-24.4499 234.026 -29.7197 248.02 -24.2302 259.598L-14.2905 280.562C-8.80103 292.141 5.36898 296.918 17.3591 291.233L46.3057 277.509L154.856 226.043L263.406 174.576L260.092 167.588L135.361 226.727C132.536 225.597 129.942 223.926 127.755 221.774L249.543 164.031L246.229 157.043L123.206 215.372L119.893 208.384L242.916 150.055L239.603 143.067L116.58 201.396L113.266 194.408L236.29 136.079L232.977 129.091L111.189 186.834C110.907 183.778 111.255 180.713 112.168 177.81L236.9 118.672L233.587 111.684L125.037 163.15L16.4869 214.616L-12.4598 228.341Z" fill="url(#paint0_linear_156_12079)"/>
<defs>
<linearGradient id="paint0_linear_156_12079" x1="72.7526" y1="-26.0335" x2="185.402" y2="211.56" gradientUnits="userSpaceOnUse">
<stop stop-color="#DDDDDD"/>
<stop offset="0.244792" stop-color="#DDDDDD" stop-opacity="0.3"/>
<stop offset="0.520833" stop-color="#DDDDDD" stop-opacity="0.3"/>
<stop offset="0.640625" stop-color="#DDDDDD" stop-opacity="0.15"/>
<stop offset="0.760417" stop-color="#DDDDDD" stop-opacity="0.1"/>
<stop offset="0.875" stop-color="#DDDDDD" stop-opacity="0.05"/>
<stop offset="1" stop-color="#DDDDDD" stop-opacity="0"/>
<stop offset="1" stop-color="#DDDDDD" stop-opacity="0"/>
</linearGradient>
</defs>
</svg>
