<svg width="17" height="16" viewBox="0 0 17 16" fill="none" xmlns="http://www.w3.org/2000/svg">
<path id="Star 1" d="M7.59303 0.952964C7.95143 0.181232 9.04857 0.181231 9.40697 0.952963L10.9571 4.29092C11.1028 4.60467 11.4004 4.82083 11.7438 4.86245L15.3974 5.30526C16.2421 5.40764 16.5811 6.45108 15.9579 7.03041L13.2624 9.53619C13.009 9.77172 12.8954 10.1215 12.9619 10.461L13.6698 14.0726C13.8335 14.9076 12.9458 15.5525 12.2023 15.1388L8.98618 13.3495C8.68388 13.1813 8.31612 13.1813 8.01382 13.3495L4.79772 15.1388C4.05415 15.5525 3.16655 14.9076 3.33021 14.0726L4.0381 10.461C4.10464 10.1215 3.991 9.77172 3.73763 9.53619L1.04207 7.03042C0.418864 6.45108 0.757898 5.40764 1.60261 5.30526L5.25622 4.86245C5.59964 4.82083 5.89716 4.60467 6.04287 4.29092L7.59303 0.952964Z" fill="#FFBB36"/>
</svg>
